<mxfile host="app.diagrams.net" modified="2024-03-20T08:52:42.391Z" agent="Mozilla/5.0 (Windows NT 10.0; Win64; x64) AppleWebKit/537.36 (KHTML, like Gecko) Chrome/122.0.0.0 Safari/537.36" etag="g21-Bj5tLVCj2kxDCg2R" version="24.0.7" type="device">
  <diagram name="Seite-1" id="RhglVgB_8jgNw5fiqAAg">
    <mxGraphModel dx="1434" dy="746" grid="1" gridSize="10" guides="1" tooltips="1" connect="1" arrows="1" fold="1" page="1" pageScale="1" pageWidth="827" pageHeight="1169" math="0" shadow="0">
      <root>
        <mxCell id="0" />
        <mxCell id="1" parent="0" />
        <mxCell id="ie61R4EtZ2Z6Oszv06qe-1" value="" style="rounded=0;whiteSpace=wrap;html=1;" vertex="1" parent="1">
          <mxGeometry x="10" y="10" width="560" height="680" as="geometry" />
        </mxCell>
        <mxCell id="UKP0ZIR43EBkPtUKOR8D-1" value="Tuer ist&lt;br&gt;geschlossen" style="rounded=1;whiteSpace=wrap;html=1;" parent="1" vertex="1">
          <mxGeometry x="120" y="180" width="120" height="60" as="geometry" />
        </mxCell>
        <mxCell id="UKP0ZIR43EBkPtUKOR8D-2" value="Tuer ist&lt;br&gt;geschlossen" style="rounded=1;whiteSpace=wrap;html=1;" parent="1" vertex="1">
          <mxGeometry x="120" y="450" width="120" height="60" as="geometry" />
        </mxCell>
        <mxCell id="UKP0ZIR43EBkPtUKOR8D-3" value="Tuer ist&lt;br&gt;offen" style="rounded=1;whiteSpace=wrap;html=1;" parent="1" vertex="1">
          <mxGeometry x="120" y="320" width="120" height="60" as="geometry" />
        </mxCell>
        <mxCell id="UKP0ZIR43EBkPtUKOR8D-7" value="" style="ellipse;html=1;shape=startState;fillColor=#000000;strokeColor=#ff0000;direction=south;rotation=-90;" parent="1" vertex="1">
          <mxGeometry x="165" y="110" width="30" height="30" as="geometry" />
        </mxCell>
        <mxCell id="UKP0ZIR43EBkPtUKOR8D-8" value="" style="edgeStyle=orthogonalEdgeStyle;html=1;verticalAlign=bottom;endArrow=open;endSize=8;strokeColor=#ff0000;rounded=0;" parent="1" source="UKP0ZIR43EBkPtUKOR8D-7" edge="1">
          <mxGeometry relative="1" as="geometry">
            <mxPoint x="180" y="180" as="targetPoint" />
          </mxGeometry>
        </mxCell>
        <mxCell id="UKP0ZIR43EBkPtUKOR8D-9" value="" style="endArrow=open;startArrow=none;endFill=0;startFill=0;endSize=8;html=1;verticalAlign=bottom;labelBackgroundColor=none;strokeWidth=1;rounded=0;exitX=0.417;exitY=1.017;exitDx=0;exitDy=0;exitPerimeter=0;" parent="1" edge="1">
          <mxGeometry width="160" relative="1" as="geometry">
            <mxPoint x="180.03999999999996" y="239.99999999999997" as="sourcePoint" />
            <mxPoint x="180" y="320" as="targetPoint" />
          </mxGeometry>
        </mxCell>
        <mxCell id="UKP0ZIR43EBkPtUKOR8D-11" value="Tueroeffnung via App angefordert&lt;div&gt;[erkannt, gekauftes Ticket passt zu Saal, Datum, Uhrzeit]&lt;/div&gt;" style="text;html=1;align=center;verticalAlign=middle;whiteSpace=wrap;rounded=0;" parent="1" vertex="1">
          <mxGeometry x="190" y="250" width="320" height="51.02" as="geometry" />
        </mxCell>
        <mxCell id="UKP0ZIR43EBkPtUKOR8D-12" value="" style="ellipse;html=1;shape=endState;fillColor=#000000;strokeColor=#ff0000;" parent="1" vertex="1">
          <mxGeometry x="165" y="560" width="30" height="30" as="geometry" />
        </mxCell>
        <mxCell id="nA-mKPutVwTKom6SYwYB-1" value="" style="endArrow=open;startArrow=none;endFill=0;startFill=0;endSize=8;html=1;verticalAlign=bottom;labelBackgroundColor=none;strokeWidth=1;rounded=0;exitX=0.5;exitY=1;exitDx=0;exitDy=0;" parent="1" source="UKP0ZIR43EBkPtUKOR8D-3" edge="1">
          <mxGeometry width="160" relative="1" as="geometry">
            <mxPoint x="330" y="340" as="sourcePoint" />
            <mxPoint x="180" y="450" as="targetPoint" />
          </mxGeometry>
        </mxCell>
        <mxCell id="nA-mKPutVwTKom6SYwYB-2" value="[Schliessen, wenn eine Person durchgegangen ist]" style="text;html=1;align=center;verticalAlign=middle;whiteSpace=wrap;rounded=0;" parent="1" vertex="1">
          <mxGeometry x="190" y="400" width="290" height="30" as="geometry" />
        </mxCell>
        <mxCell id="nA-mKPutVwTKom6SYwYB-3" value="" style="endArrow=open;startArrow=none;endFill=0;startFill=0;endSize=8;html=1;verticalAlign=bottom;labelBackgroundColor=none;strokeWidth=1;rounded=0;entryX=0.5;entryY=0;entryDx=0;entryDy=0;exitX=0.5;exitY=1;exitDx=0;exitDy=0;" parent="1" source="UKP0ZIR43EBkPtUKOR8D-2" target="UKP0ZIR43EBkPtUKOR8D-12" edge="1">
          <mxGeometry width="160" relative="1" as="geometry">
            <mxPoint x="330" y="370" as="sourcePoint" />
            <mxPoint x="490" y="370" as="targetPoint" />
          </mxGeometry>
        </mxCell>
        <mxCell id="uM13KQni5I29WSyd9r72-1" value="Zutrittsteuerung zum Kinosaal" style="shape=umlFrame;whiteSpace=wrap;html=1;pointerEvents=0;recursiveResize=0;container=1;collapsible=0;width=160;" parent="1" vertex="1">
          <mxGeometry x="40" y="50" width="500" height="570" as="geometry" />
        </mxCell>
      </root>
    </mxGraphModel>
  </diagram>
</mxfile>
